<?xml version="1.0" encoding="utf-8"?>
<!-- Generator: Adobe Illustrator 24.0.0, SVG Export Plug-In . SVG Version: 6.00 Build 0)  -->
<svg version="1.1" id="Layer_1" xmlns="http://www.w3.org/2000/svg" xmlns:xlink="http://www.w3.org/1999/xlink" x="0px" y="0px"
	 viewBox="0 0 54.1 6.2" style="enable-background:new 0 0 54.1 6.2;" xml:space="preserve">
<style type="text/css">
	.st0{enable-background:new    ;}
	.st1{fill:#FFFFFF;}
</style>
<g class="st0">
	<path class="st1" d="M0.4,0.1l3.5-0.1C4,0.1,4.1,0.2,4.1,0.3c0,0.3-0.1,0.4-0.4,0.4c-0.4,0-0.9,0-1.4,0c0,0.5,0,0.9,0,1.1
		s0,0.4,0,0.5l0,3c0,0.2,0,0.3-0.1,0.3c-0.1,0-0.2,0-0.3,0c-0.2,0-0.3-0.1-0.3-0.3C1.7,5,1.6,4.2,1.6,3s0-1.9,0.1-2.2
		c-0.1,0-0.3,0-0.5,0c-0.2,0-0.5,0-0.9,0c-0.1,0-0.2,0-0.2-0.1C0,0.7,0,0.6,0,0.5s0-0.2,0.1-0.2C0.2,0.2,0.3,0.2,0.4,0.1z"/>
	<path class="st1" d="M5.1,2.4C5.6,2.5,6,2.5,6.3,2.5s0.6,0,0.7,0c0-0.4,0-0.8,0-1.2s0-0.7,0-0.8c0-0.1,0-0.2,0-0.3
		c0,0,0-0.1,0.1-0.1C7.2,0.1,7.3,0,7.4,0c0.2,0,0.3,0.1,0.3,0.3v3c0,0.6,0,1.3,0,2.1c0,0.2-0.1,0.2-0.4,0.2C7.1,5.7,7,5.6,7,5.4
		l0-2.3c-0.2,0-0.4,0-0.7,0c-0.3,0-0.7,0-1.2-0.1c0,0.8,0,1.5,0.1,2.4c0,0.1,0,0.2-0.1,0.2C5,5.7,4.9,5.7,4.8,5.7
		c-0.1,0-0.2-0.1-0.2-0.2C4.5,4.7,4.5,3.9,4.5,3.1l0.1-2.7c0-0.1,0-0.2,0.1-0.3c0.1-0.1,0.2-0.1,0.3-0.1c0.2,0,0.2,0.1,0.2,0.2
		L5.1,2.4z"/>
	<path class="st1" d="M8.5,2.8C8.4,2.7,8.3,2.6,8.3,2.5c0-0.1,0-0.2,0.1-0.3c0-0.6,0-1.2,0-1.8c0-0.1,0.1-0.2,0.2-0.3
		C8.6,0.1,8.7,0.1,8.9,0c0.8,0,1.6,0.1,2.4,0.1c0.2,0,0.3,0.1,0.3,0.3c0,0.2-0.2,0.4-0.7,0.4c-0.1,0-0.3,0-0.4,0H10
		c-0.1,0-0.4,0-0.9-0.1c0,0.7,0,1.2,0,1.5c0.3,0,0.9,0,1.7,0c0.2,0,0.3,0.1,0.3,0.3s-0.1,0.3-0.2,0.3c0,0,0,0-0.1,0l-1.5,0
		c-0.1,0-0.2,0-0.2,0l0,1.5c0,0.3,0,0.6,0,0.7l2,0c0.2,0,0.3,0.1,0.3,0.2c0,0.1,0,0.2-0.1,0.3c-0.1,0.1-0.2,0.1-0.3,0.2l-2.2,0
		c-0.1,0-0.2,0-0.3-0.1c-0.1,0-0.1-0.1-0.1-0.2c0-0.2,0-0.4,0-0.8V4L8.5,2.8z"/>
	<path class="st1" d="M14.2,5.4c-0.1-0.1-0.1-0.1-0.1-0.2s0-0.1,0.1-0.2c-0.1-0.8-0.2-1.8-0.2-2.8c0-0.3,0-0.9,0-1.9
		c0-0.1,0.1-0.2,0.2-0.2C14.4,0.1,14.4,0,14.5,0c0.1,0,0.1,0,0.1,0c0.8,0.2,1.5,0.7,2.1,1.3c0.6,0.7,0.9,1.4,0.9,2.3
		c0,1-0.4,1.6-1.2,1.9c-0.2,0.1-0.5,0.1-0.8,0.1s-0.5,0-0.7-0.1c0,0,0,0.1,0,0.2s0,0.2-0.1,0.2c-0.1,0.1-0.2,0.1-0.3,0.1
		c-0.1,0-0.2-0.1-0.2-0.2L14.2,5.4z M14.8,2.1c0,1,0.1,1.9,0.2,2.8C15.1,5,15.3,5,15.6,5c0.3,0,0.6-0.1,0.9-0.2
		C16.9,4.8,17,4.6,17,4.4c0-0.2,0-0.3,0-0.4c0-0.7-0.2-1.4-0.6-2c-0.4-0.6-1-1-1.7-1.3C14.8,1.4,14.8,1.9,14.8,2.1z"/>
	<path class="st1" d="M20.4,0c0.4,0,0.7,0.1,1,0.4c0.5,0.5,0.8,1.3,0.8,2.3S22,4.6,21.4,5.2c-0.3,0.3-0.7,0.5-1.1,0.5
		c-0.5,0-1-0.2-1.3-0.6c-0.3-0.4-0.5-0.8-0.6-1.2c-0.1-0.5-0.2-0.9-0.2-1.3c0-0.7,0.2-1.3,0.5-1.8C19.1,0.3,19.6,0,20.4,0z
		 M20.4,0.7c-0.8,0-1.2,0.4-1.4,1.1c-0.1,0.2-0.1,0.4-0.1,0.7c0,0.3,0.1,0.7,0.2,1.1c0.2,0.5,0.4,0.9,0.7,1.1
		c0.2,0.1,0.4,0.2,0.6,0.2c0.3,0,0.5-0.1,0.7-0.3c0.2-0.2,0.3-0.5,0.4-0.9s0.1-0.7,0.1-1.1c0-0.6-0.1-1.1-0.3-1.5
		C21.1,0.9,20.8,0.7,20.4,0.7z"/>
	<path class="st1" d="M26.4,0c0.1,0,0.2,0,0.2,0.1c0.1,0.1,0.1,0.2,0.1,0.3c0,2.2,0,3.6,0,4c0,0.5,0,0.7,0,0.7c0,0.1,0,0.2-0.1,0.4
		c-0.1,0.1-0.1,0.2-0.2,0.2s-0.1,0-0.2,0c0,0-0.1,0-0.1,0c0,0-0.1,0-0.1-0.1L26,5.5c0,0-0.1-0.1-0.1-0.1c0-0.1-0.1-0.1-0.1-0.2
		c0,0-0.1-0.1-0.1-0.2c0-0.1-0.2-0.3-0.3-0.6c-0.2-0.3-0.3-0.6-0.4-0.8c-0.5-0.8-0.9-1.5-1.3-2c0,1.9-0.1,3.1-0.2,3.9
		c0,0.1-0.1,0.2-0.3,0.2c-0.1,0-0.2,0-0.2-0.1c-0.1,0-0.1-0.1-0.1-0.2s0-0.7,0.1-1.7C23,2.7,23,2,23,1.8c0-0.3,0-0.4,0-0.5
		c0-0.4,0-0.6,0.1-0.7c0.1-0.1,0.1-0.1,0.2-0.1c0.3,0,0.8,0.5,1.4,1.5c0.1,0.2,0.4,0.6,0.7,1.3c0.4,0.6,0.6,1,0.6,1.2L26,0.9
		c0-0.5,0.1-0.8,0.2-0.8C26.2,0.1,26.3,0,26.4,0z"/>
	<path class="st1" d="M30.8,0.1C30.9,0,31,0,31.1,0c0.1,0,0.2,0,0.2,0.1c0.1,0.5,0.1,1.1,0.1,1.7v0.7c0,0.5,0,0.8,0,0.9
		c0,0.1,0,0.2-0.1,0.3c0,0.1,0,0.2,0,0.2c0,0.1,0,0.1-0.1,0.2c-0.1,0.2-0.2,0.4-0.3,0.6c-0.2,0.3-0.4,0.6-0.7,0.8
		c-0.3,0.2-0.6,0.3-0.9,0.3c-0.3,0-0.6-0.1-0.9-0.4c-0.3-0.3-0.6-0.6-0.7-0.9c-0.3-0.6-0.4-1.3-0.4-2c0-0.3,0-0.9,0.1-1.9
		c0-0.1,0.1-0.2,0.2-0.2c0.1-0.1,0.2-0.1,0.3-0.1c0.1,0,0.2,0.1,0.2,0.3c-0.1,1-0.1,1.6-0.1,1.9c0,0.6,0.1,1.2,0.4,1.7
		c0.2,0.3,0.3,0.6,0.6,0.8C29.2,4.9,29.5,5,29.7,5c0.4,0,0.7-0.3,0.9-0.8c0.1-0.2,0.2-0.5,0.2-0.9c0-0.1,0-0.2,0-0.2l0-1.1
		c0-0.5,0-1-0.1-1.4C30.7,0.3,30.7,0.2,30.8,0.1z"/>
	<path class="st1" d="M32.2,0.1l3.5-0.1c0.2,0.1,0.2,0.1,0.2,0.2c0,0.3-0.1,0.4-0.4,0.4c-0.4,0-0.9,0-1.4,0c0,0.5,0,0.9,0,1.1
		s0,0.4,0,0.5l0,3c0,0.2,0,0.3-0.1,0.3c-0.1,0-0.2,0-0.3,0c-0.2,0-0.3-0.1-0.3-0.3c0-0.4-0.1-1.3-0.1-2.5s0-1.9,0.1-2.2
		c-0.1,0-0.3,0-0.5,0s-0.5,0-0.9,0c-0.1,0-0.2,0-0.2-0.1c-0.1-0.1-0.1-0.1-0.1-0.2s0-0.2,0.1-0.2C32,0.2,32.1,0.2,32.2,0.1z"/>
	<path class="st1" d="M40.1,0c0.4,0,0.7,0.1,0.9,0.2c0.3,0.1,0.4,0.3,0.4,0.5c0,0.1,0,0.2-0.1,0.2C41.3,1,41.2,1,41.1,1
		S40.9,1,40.6,0.8c-0.3-0.1-0.5-0.2-0.7-0.2c-0.2,0-0.5,0.1-0.7,0.2c-0.2,0.1-0.4,0.3-0.4,0.5c0,0.3,0.1,0.5,0.4,0.6
		c0.2,0.1,0.5,0.2,0.9,0.3c0.4,0.1,0.7,0.2,1,0.5c0.3,0.2,0.4,0.6,0.4,1.1c0,0.7-0.2,1.3-0.7,1.6c-0.2,0.2-0.6,0.3-1,0.3
		c-0.4,0-0.9-0.1-1.3-0.4c-0.3-0.2-0.4-0.3-0.4-0.5c0-0.1,0-0.1,0.1-0.2c0-0.1,0.1-0.1,0.2-0.2c0.1,0,0.2-0.1,0.2,0
		c0.1,0,0.2,0.1,0.3,0.2c0.2,0.1,0.3,0.1,0.4,0.2C39.5,4.9,39.7,5,40,5c0.2,0,0.4-0.1,0.6-0.3c0.2-0.2,0.3-0.5,0.3-0.8
		c0-0.4-0.2-0.7-0.6-0.8c-0.2-0.1-0.4-0.1-0.7-0.2c-0.5-0.1-0.9-0.2-1.1-0.5c-0.3-0.2-0.4-0.5-0.4-1c0-0.4,0.2-0.8,0.6-1
		S39.5,0,40.1,0z"/>
	<path class="st1" d="M42.8,2.4c0.4,0.1,0.9,0.1,1.2,0.1c0.4,0,0.6,0,0.7,0c0-0.4,0-0.8,0-1.2s0-0.7,0-0.8c0-0.1,0-0.2,0-0.3
		c0,0,0-0.1,0.1-0.1C44.9,0.1,45,0,45.2,0c0.2,0,0.3,0.1,0.3,0.3v3c0,0.6,0,1.3,0,2.1c0,0.2-0.1,0.2-0.4,0.2c-0.1,0-0.2-0.1-0.2-0.2
		l0-2.3c-0.2,0-0.4,0-0.7,0s-0.7,0-1.2-0.1c0,0.8,0,1.5,0.1,2.4c0,0.1,0,0.2-0.1,0.2c-0.1,0-0.2,0.1-0.3,0.1c-0.1,0-0.2-0.1-0.2-0.2
		c-0.1-0.8-0.1-1.6-0.1-2.4l0.1-2.7c0-0.1,0-0.2,0.1-0.3c0.1-0.1,0.2-0.1,0.3-0.1c0.2,0,0.2,0.1,0.2,0.2L42.8,2.4z"/>
	<path class="st1" d="M48.3,0c0.4,0,0.7,0.1,1,0.4c0.5,0.5,0.8,1.3,0.8,2.3s-0.3,1.9-0.9,2.5c-0.3,0.3-0.7,0.5-1.1,0.5
		c-0.5,0-1-0.2-1.3-0.6c-0.3-0.4-0.5-0.8-0.6-1.2c-0.1-0.5-0.2-0.9-0.2-1.3c0-0.7,0.2-1.3,0.5-1.8C47,0.3,47.5,0,48.3,0z M48.3,0.7
		c-0.8,0-1.2,0.4-1.4,1.1c-0.1,0.2-0.1,0.4-0.1,0.7c0,0.3,0.1,0.7,0.2,1.1c0.2,0.5,0.4,0.9,0.7,1.1c0.2,0.1,0.4,0.2,0.6,0.2
		c0.3,0,0.5-0.1,0.7-0.3c0.2-0.2,0.3-0.5,0.4-0.9c0.1-0.3,0.1-0.7,0.1-1.1c0-0.6-0.1-1.1-0.3-1.5C49,0.9,48.7,0.7,48.3,0.7z"/>
	<path class="st1" d="M51,4.8c0-0.6-0.1-1.4-0.1-2.4c0-1,0-1.6,0-1.9c0-0.2,0.2-0.3,0.4-0.4C51.5,0.1,51.8,0,52.2,0
		c0.5,0,1,0.1,1.4,0.3s0.6,0.6,0.6,1c0,0.4-0.1,0.7-0.2,0.9c-0.1,0.2-0.2,0.4-0.4,0.6c-0.3,0.2-0.6,0.3-1.1,0.3
		c-0.2,0-0.5,0-0.8-0.1c0,1.1,0,1.9,0,2.2c0,0.3-0.1,0.4-0.3,0.4c-0.1,0-0.2,0-0.2-0.1c0,0-0.1-0.1-0.1-0.1c0,0,0-0.1,0-0.1
		c0,0,0-0.1,0-0.1c0,0,0-0.1,0-0.1c0-0.1,0-0.1,0-0.1C51,5,51,4.9,51,4.8z M53.4,1.4c0-0.2-0.1-0.4-0.4-0.5
		c-0.3-0.1-0.5-0.2-0.8-0.2c-0.3,0-0.5,0-0.6,0.1c0,0.3,0,0.6,0,0.9s0,0.5,0,0.8c0.2,0,0.3,0,0.3,0c0.1,0,0.3,0,0.4,0
		c0.1,0,0.2,0,0.2,0c0,0,0.1,0,0.2,0c0.1,0,0.2,0,0.2-0.1c0,0,0.1-0.1,0.2-0.1c0.1-0.1,0.1-0.1,0.1-0.2C53.4,1.9,53.4,1.7,53.4,1.4z
		"/>
</g>
</svg>
